<?xml version="1.0" standalone="no"?>
<!DOCTYPE svg PUBLIC "-//W3C//DTD SVG 20010904//EN"
 "http://www.w3.org/TR/2001/REC-SVG-20010904/DTD/svg10.dtd">
<svg version="1.0" xmlns="http://www.w3.org/2000/svg"
 width="2000.000000pt" height="2000.000000pt" viewBox="0 0 2000.000000 2000.000000"
 preserveAspectRatio="xMidYMid meet">

<g transform="translate(0.000000,2000.000000) scale(0.100000,-0.100000)"
fill="#000000" stroke="none">
<path d="M2978 16594 c-14 -14 -15 -36 -11 -158 10 -266 -24 -509 -187 -1346
-180 -923 -251 -1378 -295 -1890 -72 -853 -32 -1580 125 -2251 121 -519 347
-1081 581 -1446 l63 -98 9 -576 9 -576 -35 -89 c-62 -155 -71 -203 -72 -369 0
-173 11 -226 80 -370 l43 -90 10 -750 c8 -550 14 -760 23 -788 7 -21 30 -58
51 -82 l39 -44 -333 -3 -333 -3 -53 -28 c-65 -34 -123 -93 -154 -155 -19 -40
-23 -63 -23 -147 0 -89 3 -106 27 -151 15 -28 50 -72 78 -97 87 -78 94 -79
561 -81 341 -1 409 -3 409 -15 0 -7 -20 -55 -44 -107 l-44 -92 72 -16 c284
-63 547 -91 767 -84 80 3 155 10 166 16 16 9 24 36 43 144 13 73 26 136 30
140 3 5 2866 9 6360 10 l6355 3 56 26 c76 36 129 86 165 156 26 51 29 68 29
148 0 71 -5 100 -22 137 -30 66 -104 141 -166 169 -48 22 -68 24 -277 29 -211
5 -223 6 -199 21 13 9 38 40 54 70 35 66 30 -53 60 1279 14 591 39 1638 55
2325 16 688 37 1540 45 1895 18 803 32 1374 46 1911 9 362 8 425 -5 490 -38
185 -165 350 -327 427 -124 59 -159 65 -371 63 l-187 -2 7 83 c9 105 9 188 0
308 l-8 95 125 110 c68 60 126 114 128 120 4 9 -140 362 -160 393 -6 10 -41
10 -182 1 l-174 -12 -31 39 c-52 67 -168 184 -241 244 l-70 57 5 109 c3 60 6
140 5 178 l0 68 -194 79 c-107 43 -197 79 -202 79 -4 0 -58 -57 -119 -126
l-110 -127 -249 0 -248 -1 -108 120 c-59 65 -114 120 -122 122 -12 3 -355
-135 -391 -157 -10 -6 -10 -41 -1 -181 l12 -173 -49 -41 c-89 -74 -178 -164
-234 -236 l-55 -71 -60 5 c-33 3 -112 8 -176 12 l-116 6 -26 -64 c-14 -34 -51
-124 -81 -198 -31 -74 -56 -138 -56 -142 0 -4 57 -57 128 -119 l127 -112 -3
-186 c-2 -102 1 -211 7 -241 9 -54 9 -56 -22 -87 l-32 -32 -283 -7 -283 -7 56
54 56 54 -39 95 c-22 52 -47 112 -56 133 l-17 39 -62 -6 c-83 -8 -176 -10
-180 -5 -31 45 -94 112 -149 160 l-71 61 -1 120 -1 121 -120 48 c-66 27 -127
49 -136 49 -9 0 -24 -10 -32 -22 -8 -13 -39 -49 -69 -82 l-54 -58 -167 -2
-168 -2 -57 66 c-97 111 -87 104 -119 92 -15 -6 -75 -31 -133 -55 l-105 -44 4
-119 3 -119 -67 -59 c-37 -33 -87 -84 -110 -114 l-43 -55 -123 -1 -122 -1 -49
-120 c-26 -66 -48 -127 -47 -135 0 -8 31 -42 70 -75 38 -32 69 -63 69 -67 0
-4 -66 -8 -147 -8 -82 0 -186 -3 -233 -5 -47 -3 -285 -9 -530 -15 -245 -5
-519 -12 -610 -15 -91 -3 -345 -10 -565 -15 -594 -15 -1510 -39 -1760 -46
-648 -17 -1610 -42 -1612 -40 -1 1 -5 94 -8 206 -10 354 -49 713 -110 1025
-64 320 -171 697 -207 728 -24 20 -77 23 -101 5 -9 -7 -36 -69 -60 -138 -60
-169 -94 -252 -190 -470 -114 -259 -317 -665 -326 -654 -5 5 -20 59 -35 119
-158 650 -532 1324 -1015 1827 -85 89 -97 98 -130 98 -20 0 -44 -7 -53 -16z
m344 -1035 c24 -138 73 -525 93 -724 9 -88 18 -176 20 -195 2 -19 7 -89 11
-155 4 -66 8 -133 9 -150 1 -16 6 -142 10 -280 l7 -250 -50 -27 -51 -27 -1
262 c-1 467 -47 1256 -91 1570 -5 38 -6 73 -3 78 16 26 31 -7 46 -102z m11678
-194 c373 -77 675 -366 770 -735 27 -105 37 -286 21 -390 -57 -371 -302 -670
-652 -799 -129 -47 -179 -55 -339 -55 -170 0 -236 12 -367 64 -98 40 -213 107
-213 126 0 24 31 29 64 9 148 -87 272 -129 424 -145 144 -15 330 12 447 65 17
8 43 19 59 24 55 22 172 105 245 175 148 143 243 324 277 526 73 442 -178 879
-596 1039 -127 48 -226 64 -375 58 -156 -5 -250 -28 -382 -93 -253 -124 -425
-335 -506 -619 -16 -55 -20 -104 -22 -235 -1 -145 -3 -165 -18 -168 -31 -6
-39 44 -34 203 4 114 10 168 27 225 98 337 330 583 650 691 172 58 349 69 520
34z m-121 -586 c75 -17 149 -60 205 -119 88 -92 123 -192 112 -317 -20 -244
-257 -417 -494 -363 -157 37 -283 170 -313 331 -51 278 214 532 490 468z
m-3073 -260 c129 -23 272 -100 368 -197 181 -182 245 -468 161 -710 -14 -40
-23 -78 -19 -84 4 -7 3 -8 -4 -4 -7 4 -18 -7 -28 -26 -28 -55 -114 -155 -174
-202 -210 -165 -503 -196 -740 -76 -81 41 -104 62 -96 87 11 34 35 32 121 -12
102 -52 162 -65 288 -65 116 0 178 14 268 60 120 60 206 143 266 256 53 101
73 180 73 291 0 173 -58 312 -179 433 -243 241 -619 241 -862 0 -124 -124
-179 -260 -179 -445 0 -104 -7 -125 -42 -125 -27 0 -38 40 -38 139 0 316 214
590 523 671 82 21 205 25 293 9z m1 -438 c161 -82 194 -326 61 -447 -60 -54
-111 -74 -194 -74 -87 0 -158 32 -209 94 -48 59 -66 107 -66 181 -2 209 219
343 408 246z m850 -223 c-3 -8 -6 -5 -6 6 -1 11 2 17 5 13 3 -3 4 -12 1 -19z
m4004 -35 c83 -39 139 -89 183 -162 67 -110 70 -135 57 -576 -6 -214 -14 -530
-17 -702 l-7 -312 31 -48 c246 -383 237 -897 -22 -1275 l-45 -66 -11 -414 c-6
-227 -24 -957 -40 -1623 -17 -665 -34 -1376 -40 -1580 -5 -203 -12 -505 -16
-670 -3 -165 -10 -318 -16 -340 -14 -58 -55 -112 -107 -143 l-46 -27 -630 -5
c-347 -3 -620 -9 -607 -13 39 -15 72 -75 72 -134 0 -44 -5 -58 -29 -85 -28
-32 -33 -33 -108 -34 -108 -3 -355 22 -520 52 -76 14 -149 26 -163 29 -14 2
-47 8 -75 13 l-50 10 66 -2 c50 -1 69 3 83 17 10 9 22 17 27 17 5 0 9 20 9 45
0 38 -3 45 -20 45 -18 0 -20 7 -20 60 0 53 2 60 20 60 13 0 20 7 20 20 0 11 5
20 10 20 6 0 10 9 10 20 0 11 5 20 10 20 6 0 10 6 10 13 0 15 74 40 78 26 2
-5 12 -9 22 -9 10 0 22 -5 25 -10 4 -6 14 -10 23 -9 20 3 68 -8 102 -23 28
-13 35 -15 70 -22 14 -3 52 -16 85 -29 33 -13 89 -31 125 -41 l66 -18 229 71
c126 40 244 79 262 88 61 29 131 101 165 171 29 57 33 77 33 142 0 92 -16 146
-58 202 -67 87 -164 125 -276 107 -33 -5 -120 -40 -223 -89 -93 -44 -171 -80
-173 -80 -3 0 -5 139 -5 308 0 178 -4 312 -9 318 -6 5 -11 49 -12 98 -2 90 -2
90 30 116 38 32 242 150 259 150 18 0 16 12 -22 125 -112 334 -266 504 -529
584 -70 21 -87 21 -87 -4 0 -7 -9 -34 -20 -59 -29 -68 -100 -139 -173 -172
-57 -27 -71 -29 -182 -29 -109 0 -125 2 -177 27 -99 46 -162 118 -224 256 -4
9 -170 -64 -220 -97 -135 -87 -249 -249 -327 -468 -30 -83 -46 -180 -29 -169
17 10 268 -133 286 -163 4 -6 4 -49 0 -96 -6 -70 -10 -85 -23 -85 -39 0 -41
-14 -41 -322 0 -164 -2 -298 -5 -298 -3 0 -81 39 -175 88 l-170 87 -82 0 c-66
0 -91 -5 -125 -23 -91 -48 -150 -137 -163 -246 -12 -106 17 -194 88 -269 53
-55 101 -81 248 -131 149 -51 229 -86 262 -115 29 -25 28 -27 -9 -35 -24 -4
-30 -10 -25 -22 11 -29 36 -185 36 -225 l0 -39 -58 0 c-52 0 -61 3 -88 31 -25
26 -29 38 -29 83 0 57 31 116 70 135 16 8 8 10 -35 11 -30 0 -2005 1 -4388 0
-4165 -1 -4333 0 -4328 17 3 10 14 70 26 133 11 63 27 152 35 197 18 97 20
306 3 404 -10 65 -13 70 -32 64 -168 -50 -342 -37 -487 35 -59 29 -62 29 -92
13 -126 -64 -268 -194 -309 -283 -14 -30 -30 -82 -36 -115 -37 -194 -52 -279
-62 -357 -7 -49 -15 -88 -20 -88 -21 0 -92 65 -112 102 -21 40 -23 60 -29 293
-4 138 -7 361 -8 498 l-1 247 37 -19 c64 -32 193 -68 291 -81 88 -12 257 -9
294 5 40 16 30 263 -18 444 -13 52 -45 138 -70 190 -78 163 -72 279 20 379 22
24 56 52 76 62 l35 18 69 310 c38 171 65 315 62 321 -4 6 -23 11 -42 11 -43 0
-86 21 -113 56 -26 34 -26 54 0 88 25 31 53 33 98 5 18 -11 34 -19 36 -17 1 2
13 51 25 111 20 92 25 107 42 107 36 0 142 31 191 56 27 13 50 24 52 24 2 0
26 -39 52 -87 l48 -88 3 73 c3 88 -17 167 -60 235 -122 191 -430 209 -613 36
-93 -88 -128 -193 -105 -317 10 -56 9 -68 -7 -100 -21 -43 -35 -51 -168 -91
-63 -20 -130 -49 -180 -80 l-80 -49 -2 32 c-1 17 -7 342 -13 721 -28 1836 -42
2830 -43 3245 -2 449 -2 456 21 520 60 174 208 303 405 354 58 15 191 20 1542
56 209 6 794 21 1300 35 1190 32 1949 53 2410 65 204 5 449 12 545 15 563 18
912 25 920 20 26 -16 10 -37 -125 -158 l-40 -35 14 -39 c8 -21 27 -66 42 -100
16 -34 35 -78 43 -98 l15 -36 118 7 118 6 59 -67 c32 -36 84 -87 115 -113 l56
-47 -7 -115 c-3 -63 -5 -116 -3 -118 1 -2 62 -27 135 -57 l132 -54 38 42 c21
23 55 61 77 85 l38 44 168 1 167 1 71 -82 c40 -45 77 -82 83 -82 6 0 67 24
136 54 l125 53 -3 119 -4 119 74 67 c41 36 90 87 109 113 l34 46 121 -4 121
-4 47 116 c26 64 52 124 57 134 11 20 5 26 -104 121 -63 55 -68 62 -65 95 3
34 5 36 48 43 25 3 131 7 235 7 l190 1 39 -93 c22 -50 45 -99 53 -108 7 -9 11
-18 8 -21 -3 -3 0 -18 7 -33 l12 -28 88 7 c48 3 127 9 176 12 l87 7 40 -49
c67 -84 155 -172 232 -231 l73 -58 -7 -140 c-11 -225 -13 -207 27 -226 46 -22
61 -29 220 -94 74 -30 141 -53 150 -50 8 3 34 29 58 58 23 29 71 84 106 122
l64 70 188 -3 c106 -2 211 1 239 7 l50 11 65 -72 c36 -40 90 -99 122 -132 l56
-61 39 14 c51 19 353 148 359 154 3 2 0 82 -6 177 l-11 173 38 30 c45 36 223
214 273 273 l35 42 162 -10 c89 -6 168 -8 175 -5 8 2 45 82 83 177 l70 172 50
-4 c29 -2 80 -18 116 -35z m-12524 -4700 c-8 -31 -8 -67 0 -136 23 -195 -7
-235 -358 -492 -282 -206 -412 -350 -472 -523 -26 -77 -29 -95 -25 -187 3 -89
7 -109 34 -163 17 -34 27 -62 22 -62 -16 0 -59 108 -70 176 -14 81 0 185 36
274 63 155 209 311 467 497 206 149 287 219 324 277 32 53 34 77 25 266 -2 48
1 83 9 98 18 34 21 24 8 -25z m-258 -751 c-267 -274 -377 -546 -325 -801 18
-88 15 -119 -4 -54 -7 21 -14 85 -17 143 -4 85 -1 122 16 195 27 113 92 248
171 355 66 88 230 264 238 255 3 -3 -33 -44 -79 -93z m10640 -1406 c47 -25 63
-83 36 -135 -16 -32 -33 -41 -76 -41 -43 0 -69 17 -85 56 -37 89 40 163 125
120z m-189 -909 c0 -29 5 -58 12 -65 7 -7 39 -12 75 -12 35 0 63 -3 63 -7 0
-3 -7 -15 -17 -25 -12 -14 -31 -18 -80 -18 l-63 0 16 -25 c9 -14 23 -25 30
-25 12 0 11 -5 -2 -25 -15 -24 -44 -35 -44 -17 0 4 -23 31 -50 59 -30 31 -48
57 -45 66 3 7 -1 20 -10 27 -8 7 -15 20 -15 28 0 11 13 3 40 -23 43 -42 44
-40 41 33 -2 30 3 50 15 63 27 30 34 23 34 -34z m-170 -27 c0 -5 -2 -10 -4
-10 -3 0 -8 5 -11 10 -3 6 -1 10 4 10 6 0 11 -4 11 -10z m-4 -115 c-6 -18 -1
-19 24 -5 16 9 18 7 15 -10 -2 -11 0 -20 4 -20 5 0 29 -19 55 -43 41 -39 44
-45 32 -62 -12 -17 -14 -17 -37 -1 -13 9 -23 20 -22 24 1 4 -20 30 -46 57 -44
46 -55 75 -29 75 6 0 8 -7 4 -15z m-73 -100 c-3 -9 -8 -14 -10 -11 -3 3 -2 9
2 15 9 16 15 13 8 -4z"/>
<path d="M14718 14680 c-111 -28 -189 -107 -223 -225 -64 -217 153 -435 372
-375 235 65 310 354 136 522 -69 67 -193 101 -285 78z"/>
<path d="M11616 14026 c-57 -21 -88 -47 -116 -97 -82 -148 56 -330 219 -289
93 23 152 97 154 195 3 131 -138 235 -257 191z"/>
<path d="M5889 11758 c-40 -20 -61 -40 -76 -76 -11 -26 -12 -146 -7 -688 l7
-656 23 37 23 38 5 -34 c3 -19 15 -97 25 -174 11 -77 22 -153 25 -170 2 -16 2
337 -1 785 -5 686 -3 817 8 826 14 11 294 9 2978 -15 568 -5 1037 -13 1041
-18 8 -8 12 -124 31 -798 16 -570 17 -1718 1 -1930 -16 -212 -18 -224 -45
-229 -12 -3 -175 -7 -362 -10 -319 -6 -551 -11 -1410 -36 -192 -5 -593 -17
-890 -25 -297 -8 -666 -20 -820 -25 -153 -6 -300 -10 -325 -10 -46 0 -46 0
-73 -55 l-27 -55 28 0 c27 0 392 11 1027 30 674 20 1022 30 1730 49 396 11
790 22 875 25 85 3 199 6 252 6 l96 0 11 33 c15 47 30 173 40 327 29 457 -5
2664 -42 2740 -18 37 -41 57 -78 68 -21 6 -280 13 -664 16 -346 4 -740 8 -875
11 -135 3 -634 7 -1110 10 -476 3 -984 7 -1130 10 -200 4 -271 2 -291 -7z"/>
<path d="M15584 11621 c-23 -10 -51 -32 -62 -49 -60 -84 -68 -276 -15 -375 33
-62 76 -87 146 -87 69 0 87 12 87 61 0 36 -2 39 -19 29 -28 -15 -83 -12 -108
5 -31 22 -47 79 -47 170 -1 92 21 150 66 175 24 13 30 13 61 -2 l34 -16 16 34
c16 33 16 34 -6 48 -39 25 -107 29 -153 7z"/>
<path d="M15890 11627 c-49 -17 -80 -68 -80 -129 0 -68 24 -114 82 -155 27
-20 53 -43 58 -53 14 -26 12 -74 -2 -88 -16 -16 -71 -15 -113 2 l-35 15 0 -44
c0 -39 3 -44 31 -54 45 -16 125 -14 159 4 40 20 60 63 60 125 0 67 -9 83 -87
156 -58 52 -66 65 -65 94 1 56 29 67 108 44 15 -4 23 0 26 13 3 10 9 25 12 34
13 31 -96 57 -154 36z"/>
<path d="M16203 11630 c-61 -14 -93 -60 -93 -135 0 -65 24 -109 82 -152 63
-46 87 -94 63 -129 -18 -28 -66 -32 -120 -10 l-35 15 0 -44 c0 -39 3 -44 31
-54 45 -16 125 -14 159 4 42 22 60 63 60 136 l0 62 -74 71 c-79 75 -84 85 -73
128 9 33 40 44 81 29 15 -6 31 -11 36 -11 6 0 30 52 30 65 0 5 -57 24 -85 28
-16 2 -45 1 -62 -3z"/>
<path d="M5943 10708 c4 -663 9 -940 18 -985 10 -49 10 -73 0 -115 -9 -38 -11
-161 -9 -443 l3 -390 23 44 c91 174 123 318 102 458 -13 80 -12 92 13 215 14
71 31 136 38 144 19 23 44 -7 73 -89 58 -162 78 -341 51 -463 -19 -88 -104
-358 -141 -446 -13 -32 -24 -59 -24 -60 0 -2 96 0 212 3 473 15 1124 34 1643
49 193 5 433 12 535 15 421 12 873 25 1151 31 l296 7 7 61 c34 349 29 1747
-10 2693 l-6 151 -122 6 c-66 3 -510 8 -986 11 -476 3 -1236 10 -1690 15 -454
5 -906 10 -1004 10 l-179 0 6 -922z m1012 568 c196 -52 319 -237 285 -428 -37
-200 -210 -334 -409 -315 -127 11 -253 102 -308 221 -24 53 -28 73 -28 156 0
82 4 103 27 152 79 169 262 260 433 214z m980 -397 c19 -17 35 -35 35 -39 0
-4 19 -48 41 -97 23 -48 59 -126 79 -173 21 -47 54 -119 73 -160 19 -41 69
-149 110 -240 41 -91 90 -196 107 -235 18 -38 47 -102 65 -142 36 -77 54 -93
108 -93 40 0 69 21 203 145 93 86 99 90 141 89 59 -1 67 -10 260 -289 88 -126
202 -291 254 -365 122 -175 139 -203 139 -231 0 -34 -36 -88 -66 -99 -16 -6
-513 -10 -1349 -10 -836 0 -1333 4 -1349 10 -37 14 -68 68 -62 106 2 17 41 94
86 170 45 76 112 191 150 254 37 63 112 192 167 285 55 94 192 325 303 515
112 190 237 402 277 472 41 71 84 135 96 143 37 26 92 19 132 -16z"/>
<path d="M15130 11492 c-41 -26 -94 -59 -117 -72 -34 -19 -43 -29 -43 -50 0
-23 16 -37 123 -103 120 -75 122 -76 125 -51 5 41 -2 49 -87 100 -45 26 -81
50 -81 53 0 3 38 28 85 56 79 46 85 52 85 82 0 18 -3 33 -7 33 -5 0 -42 -22
-83 -48z"/>
<path d="M16600 11507 c0 -31 5 -38 48 -63 26 -15 65 -38 86 -52 l39 -24 -86
-50 c-86 -49 -87 -50 -87 -88 l0 -39 120 76 c106 66 120 78 120 102 0 25 -13
36 -112 96 -62 37 -116 70 -120 72 -5 2 -8 -11 -8 -30z"/>
<path d="M13455 11320 c-3 -6 1 -7 9 -4 18 7 21 14 7 14 -6 0 -13 -4 -16 -10z"/>
<path d="M13438 11273 c7 -3 16 -2 19 1 4 3 -2 6 -13 5 -11 0 -14 -3 -6 -6z"/>
<path d="M13180 11215 c-1 -5 -2 -18 -1 -27 2 -18 -2 -19 -64 -23 -40 -2 -155
-61 -155 -80 0 -8 22 -26 50 -40 59 -30 64 -31 57 -6 -3 14 -1 18 9 14 10 -3
11 -10 4 -23 -8 -15 0 -22 50 -49 l60 -31 0 28 c0 23 -10 32 -59 60 -33 17
-66 32 -75 32 -8 0 -14 8 -13 19 0 11 5 17 10 14 11 -7 87 27 87 39 0 4 9 8
20 8 24 0 33 19 27 52 -2 13 -5 19 -7 13z m-189 -132 c13 -16 12 -17 -3 -4
-17 13 -22 21 -14 21 2 0 10 -8 17 -17z"/>
<path d="M13120 11184 c-14 -8 -17 -13 -7 -10 10 3 25 6 33 6 8 0 14 5 14 10
0 14 -10 12 -40 -6z"/>
<path d="M13598 11193 c-10 -2 -18 -9 -18 -14 0 -6 8 -5 20 1 11 6 20 13 20
15 0 3 -1 4 -2 4 -2 -1 -11 -3 -20 -6z"/>
<path d="M13645 11171 c-9 -15 15 -25 28 -12 9 9 7 10 -7 5 -13 -5 -17 -4 -12
4 4 7 5 12 2 12 -3 0 -7 -4 -11 -9z"/>
<path d="M13430 11161 c0 -7 -4 -10 -9 -7 -19 12 -40 -7 -54 -47 -8 -23 -18
-51 -23 -61 -6 -15 -4 -17 7 -11 8 4 4 -2 -8 -14 -23 -22 -30 -46 -15 -54 4
-2 2 -3 -4 -1 -7 1 -21 -22 -33 -53 -26 -67 -26 -65 1 -61 32 4 55 53 36 76
-12 15 -11 16 4 4 14 -11 18 -9 28 22 6 20 8 41 4 47 -4 7 -3 9 3 6 16 -10 55
104 41 120 -6 8 -8 17 -4 20 4 4 11 2 15 -6 6 -10 10 -9 15 5 3 9 4 19 1 22
-3 3 -5 0 -5 -7z m-25 -49 c-3 -3 -11 0 -18 7 -9 10 -8 11 6 5 10 -3 15 -9 12
-12z"/>
<path d="M13620 11146 c0 -2 7 -7 16 -10 8 -3 12 -2 9 4 -6 10 -25 14 -25 6z"/>
<path d="M13690 11110 c8 -5 20 -10 25 -10 6 0 3 5 -5 10 -8 5 -19 10 -25 10
-5 0 -3 -5 5 -10z"/>
<path d="M13796 11097 c3 -10 9 -15 12 -12 3 3 0 11 -7 18 -10 9 -11 8 -5 -6z"/>
<path d="M13740 11061 c0 -6 4 -13 10 -16 6 -3 7 1 4 9 -7 18 -14 21 -14 7z"/>
<path d="M13766 11058 c3 -4 11 -5 19 -1 21 7 19 12 -4 10 -11 0 -18 -5 -15
-9z"/>
<path d="M13648 11037 c-7 -8 -18 -12 -25 -10 -6 2 -14 0 -17 -5 -3 -5 8 -8
24 -6 17 2 30 -1 30 -6 0 -13 -18 -22 -24 -11 -3 4 -17 9 -31 9 -21 0 -25 -5
-25 -30 l0 -29 50 27 c28 15 50 31 50 36 0 5 4 6 10 3 11 -7 54 14 46 22 -11
11 -56 12 -53 1 1 -6 -4 -13 -12 -16 -10 -3 -12 0 -8 12 8 19 3 20 -15 3z"/>
<path d="M5810 9677 c0 -27 4 -46 9 -43 16 10 18 43 5 67 -13 23 -13 21 -14
-24z"/>
<path d="M14570 9550 c-58 -10 -134 -19 -169 -19 -112 -2 -128 -11 -257 -148
-71 -75 -122 -139 -130 -161 -31 -86 -11 -249 46 -383 29 -69 106 -189 120
-189 9 0 -3 64 -19 103 -12 30 -15 145 -5 171 7 18 49 22 59 6 11 -18 23 -10
42 28 41 84 129 90 345 25 100 -31 138 -38 202 -37 l79 1 -7 -74 c-7 -85 -1
-87 49 -9 44 69 79 155 106 256 18 69 19 90 10 121 -12 39 -61 89 -88 89 -32
0 -80 50 -110 112 -34 70 -81 118 -118 118 -13 0 -29 2 -37 4 -7 2 -60 -4
-118 -14z"/>
<path d="M5896 9435 c-10 -55 -32 -146 -47 -203 -29 -101 -29 -105 -29 -378 0
-151 4 -273 8 -270 5 3 30 36 55 75 l47 69 -1 204 c-1 111 -4 293 -8 403 l-6
200 -19 -100z"/>
<path d="M11010 8801 c0 -299 1 -319 18 -316 9 2 32 4 50 4 l32 1 0 159 0 160
26 20 c36 29 104 29 130 0 17 -19 19 -41 22 -183 l4 -161 46 1 47 2 0 163 c0
144 -2 169 -20 203 -38 75 -124 96 -209 51 -26 -14 -48 -25 -49 -25 -1 0 -1
54 0 120 l2 120 -50 0 -49 0 0 -319z"/>
<path d="M12570 8803 l0 -318 50 3 50 4 0 314 0 314 -50 0 -50 0 0 -317z m88
115 l-3 -193 -2 178 -3 177 -30 0 -29 0 -4 -107 -3 -108 -2 123 -2 122 40 0
40 0 -2 -192z"/>
<path d="M12613 9093 c9 -2 23 -2 30 0 6 3 -1 5 -18 5 -16 0 -22 -2 -12 -5z"/>
<path d="M11555 9048 c-2 -7 -9 -39 -15 -70 -11 -54 -13 -58 -46 -64 -29 -5
-34 -10 -34 -35 0 -26 4 -29 30 -29 l30 0 0 -122 c1 -147 10 -195 45 -225 31
-27 97 -31 150 -9 40 17 40 18 19 51 -13 20 -21 23 -51 18 -56 -9 -63 8 -63
159 l0 128 60 0 60 0 0 35 0 35 -60 0 -60 0 0 70 0 70 -30 0 c-17 0 -32 -6
-35 -12z"/>
<path d="M10667 8877 c-206 -107 -206 -100 11 -213 l162 -85 0 44 0 44 -106
54 -105 53 105 53 106 53 0 40 c0 22 -3 40 -7 40 -5 0 -79 -37 -166 -83z"/>
<path d="M12840 8919 c0 -38 2 -41 48 -62 26 -11 55 -21 64 -22 9 0 20 -4 25
-9 5 -5 3 -6 -4 -2 -7 4 -13 5 -13 2 0 -5 49 -29 81 -39 9 -3 21 -1 27 5 8 8
11 5 9 -11 -1 -17 -8 -21 -32 -21 -37 0 -49 -8 -35 -24 6 -8 3 -12 -10 -12
-10 0 -16 4 -13 9 3 5 -9 1 -26 -7 -17 -9 -31 -21 -31 -26 0 -5 -6 -7 -12 -5
-7 3 -28 -4 -45 -15 -28 -17 -33 -25 -33 -60 l0 -40 35 17 c19 9 31 21 28 26
-3 5 0 7 8 5 22 -8 69 20 63 37 -4 8 -1 15 6 15 6 0 8 -4 5 -10 -3 -5 -1 -10
4 -10 6 0 11 5 11 12 0 6 3 9 6 5 6 -6 144 60 144 69 0 4 -7 4 -15 0 -8 -3
-15 0 -15 5 0 7 11 9 25 7 20 -4 25 -1 25 17 0 15 -11 27 -37 39 -31 15 -35
15 -24 2 11 -13 11 -16 -3 -16 -9 0 -16 5 -16 11 0 6 -6 9 -12 6 -17 -6 -50
12 -43 23 3 5 13 6 23 3 9 -3 15 -4 12 -1 -9 10 -142 79 -146 76 -8 -9 15 -29
34 -31 11 0 18 -5 16 -9 -3 -4 -21 -1 -41 7 -44 18 -44 18 -37 0 4 -8 13 -15
22 -15 8 0 13 -2 10 -5 -3 -4 -17 -3 -31 0 -19 5 -24 11 -19 28 3 12 9 28 15
35 7 9 5 11 -8 6 -12 -5 -16 -4 -12 3 6 9 -12 23 -29 23 -2 0 -4 -18 -4 -41z
m17 -1 c-3 -7 -5 -2 -5 12 0 14 2 19 5 13 2 -7 2 -19 0 -25z m169 -75 c-7 -7
-26 7 -26 19 0 6 6 6 15 -2 9 -7 13 -15 11 -17z m14 -28 c11 -13 10 -14 -4 -9
-9 3 -16 10 -16 15 0 13 6 11 20 -6z m0 -79 c0 -8 6 -17 13 -19 7 -4 6 -6 -4
-6 -9 -1 -19 8 -22 19 -3 11 -1 20 4 20 5 0 9 -6 9 -14z m-166 -74 c3 -5 -1
-9 -9 -9 -8 0 -12 4 -9 9 3 4 7 8 9 8 2 0 6 -4 9 -8z"/>
<path d="M12006 8920 c-33 -10 -68 -39 -60 -51 3 -5 -2 -6 -10 -3 -8 3 -16 15
-18 27 -2 18 -11 23 -44 25 l-42 3 -1 -215 -2 -216 31 0 c16 0 30 5 30 10 0 6
5 10 11 10 5 0 7 -4 4 -10 -3 -5 1 -10 9 -10 14 0 16 22 16 159 l0 160 27 21
c20 15 39 20 73 19 26 -1 48 -7 49 -13 2 -6 6 -87 10 -181 l6 -170 48 0 47 0
0 155 c0 120 3 160 15 176 8 12 12 24 10 28 -3 3 -2 4 1 2 3 -2 18 -1 33 4 28
8 104 -16 102 -32 -1 -5 -1 -80 -1 -168 l0 -160 51 0 51 0 -4 173 c-3 171 -3
174 -30 209 -24 31 -99 74 -83 48 4 -6 2 -10 -4 -10 -5 0 -11 5 -13 12 -6 18
-114 -14 -110 -33 2 -8 0 -11 -4 -6 -4 4 -21 -5 -37 -20 -22 -20 -28 -23 -24
-10 8 21 -37 72 -53 62 -6 -3 -10 -1 -10 4 0 13 -33 13 -74 1z m364 -14 c0 -3
-4 -8 -10 -11 -5 -3 -10 -1 -10 4 0 6 5 11 10 11 6 0 10 -2 10 -4z"/>
<path d="M4666 8478 c-5 -18 -43 -302 -41 -306 6 -8 138 42 180 69 28 17 51
32 53 34 5 4 -53 121 -85 170 -25 40 -32 45 -66 45 -21 0 -39 -5 -41 -12z"/>
<path d="M14660 5970 c0 -5 5 -10 10 -10 6 0 10 5 10 10 0 6 -4 10 -10 10 -5
0 -10 -4 -10 -10z"/>
<path d="M4168 3073 c-58 -63 -60 -88 -28 -286 19 -113 26 -137 39 -135 12 3
17 19 19 71 4 95 21 141 52 145 20 3 43 -16 128 -105 l103 -108 98 -3 c93 -4
100 -2 114 19 23 33 6 59 -39 59 -26 0 -55 14 -112 53 -42 30 -120 82 -172
117 -109 73 -134 98 -152 158 -7 23 -15 42 -18 42 -4 0 -18 -12 -32 -27z"/>
<path d="M2713 2896 c-59 -104 -76 -162 -69 -247 8 -95 31 -165 61 -185 19
-13 31 -13 65 -4 101 27 211 190 224 333 4 37 9 81 13 97 3 18 1 30 -5 30 -5
0 -13 -24 -16 -54 -9 -66 -25 -83 -99 -97 -69 -14 -122 -5 -153 26 -29 30 -30
54 -3 106 30 61 18 57 -18 -5z"/>
</g>
</svg>
